<mxfile host="app.diagrams.net" modified="2022-04-12T02:46:34.607Z" agent="5.0 (Macintosh; Intel Mac OS X 10_15_7) AppleWebKit/537.36 (KHTML, like Gecko) Chrome/100.0.4896.75 Safari/537.36" etag="5ikUqA5Sa7oJRgAcJ2R2" version="17.4.3" type="github">
  <diagram id="HOSfMhz9Iyudh1tDM0qU" name="Page-1">
    <mxGraphModel dx="712" dy="398" grid="1" gridSize="10" guides="1" tooltips="1" connect="1" arrows="1" fold="1" page="1" pageScale="1" pageWidth="827" pageHeight="1169" math="0" shadow="0">
      <root>
        <mxCell id="0" />
        <mxCell id="1" parent="0" />
        <mxCell id="g54L0pqRCQCfRFXYQp3v-1" value="" style="strokeWidth=2;html=1;shape=mxgraph.flowchart.annotation_1;align=left;pointerEvents=1;rotation=-90;fillColor=#ffe6cc;strokeColor=#d79b00;" vertex="1" parent="1">
          <mxGeometry x="196" y="304" width="10" height="80" as="geometry" />
        </mxCell>
        <mxCell id="g54L0pqRCQCfRFXYQp3v-5" value="&lt;span style=&quot;text-align: left ; background-color: rgb(255 , 255 , 255)&quot;&gt;FirstEdge&lt;/span&gt;" style="text;html=1;align=center;verticalAlign=middle;resizable=0;points=[];autosize=1;strokeColor=none;fillColor=none;" vertex="1" parent="1">
          <mxGeometry x="166" y="304" width="70" height="20" as="geometry" />
        </mxCell>
        <mxCell id="g54L0pqRCQCfRFXYQp3v-6" value="" style="strokeWidth=2;html=1;shape=mxgraph.flowchart.annotation_1;align=left;pointerEvents=1;rotation=-90;fillColor=#dae8fc;strokeColor=#6c8ebf;" vertex="1" parent="1">
          <mxGeometry x="276" y="304" width="10" height="80" as="geometry" />
        </mxCell>
        <mxCell id="g54L0pqRCQCfRFXYQp3v-7" value="" style="strokeWidth=2;html=1;shape=mxgraph.flowchart.annotation_1;align=left;pointerEvents=1;rotation=-90;fillColor=#dae8fc;strokeColor=#6c8ebf;" vertex="1" parent="1">
          <mxGeometry x="436" y="304" width="10" height="80" as="geometry" />
        </mxCell>
        <mxCell id="g54L0pqRCQCfRFXYQp3v-9" value="" style="endArrow=none;dashed=1;html=1;dashPattern=1 3;strokeWidth=2;rounded=0;exitX=0;exitY=1;exitDx=0;exitDy=0;exitPerimeter=0;entryX=0;entryY=0;entryDx=0;entryDy=0;entryPerimeter=0;fillColor=#dae8fc;strokeColor=#6c8ebf;" edge="1" parent="1" source="g54L0pqRCQCfRFXYQp3v-6" target="g54L0pqRCQCfRFXYQp3v-7">
          <mxGeometry width="50" height="50" relative="1" as="geometry">
            <mxPoint x="316" y="394" as="sourcePoint" />
            <mxPoint x="366" y="344" as="targetPoint" />
          </mxGeometry>
        </mxCell>
        <mxCell id="g54L0pqRCQCfRFXYQp3v-10" value="" style="shape=curlyBracket;whiteSpace=wrap;html=1;rounded=1;flipH=1;rotation=-90;fillColor=#dae8fc;strokeColor=#6c8ebf;" vertex="1" parent="1">
          <mxGeometry x="352.38" y="206.88" width="19" height="235.25" as="geometry" />
        </mxCell>
        <mxCell id="g54L0pqRCQCfRFXYQp3v-11" value="&lt;span style=&quot;text-align: left ; background-color: rgb(255 , 255 , 255)&quot;&gt;OtherEdge&lt;/span&gt;" style="text;html=1;align=center;verticalAlign=middle;resizable=0;points=[];autosize=1;strokeColor=none;fillColor=none;" vertex="1" parent="1">
          <mxGeometry x="326.88" y="294" width="70" height="20" as="geometry" />
        </mxCell>
        <mxCell id="g54L0pqRCQCfRFXYQp3v-13" value="" style="strokeWidth=2;html=1;shape=mxgraph.flowchart.annotation_1;align=left;pointerEvents=1;rotation=-90;fillColor=#fff2cc;strokeColor=#66B2FF;dashed=1;dashPattern=1 1;" vertex="1" parent="1">
          <mxGeometry x="161" y="370" width="10" height="10" as="geometry" />
        </mxCell>
        <mxCell id="g54L0pqRCQCfRFXYQp3v-18" value="" style="strokeWidth=2;html=1;shape=mxgraph.flowchart.annotation_1;align=left;pointerEvents=1;rotation=-90;fillColor=#e3c800;fontColor=#000000;strokeColor=#97D077;" vertex="1" parent="1">
          <mxGeometry x="181" y="370" width="10" height="10" as="geometry" />
        </mxCell>
        <mxCell id="g54L0pqRCQCfRFXYQp3v-19" value="" style="strokeWidth=2;html=1;shape=mxgraph.flowchart.annotation_1;align=left;pointerEvents=1;rotation=-90;fillColor=#e3c800;fontColor=#000000;strokeColor=#97D077;" vertex="1" parent="1">
          <mxGeometry x="191" y="370" width="10" height="10" as="geometry" />
        </mxCell>
        <mxCell id="g54L0pqRCQCfRFXYQp3v-20" value="" style="strokeWidth=2;html=1;shape=mxgraph.flowchart.annotation_1;align=left;pointerEvents=1;rotation=-90;fillColor=#e3c800;fontColor=#000000;strokeColor=#97D077;" vertex="1" parent="1">
          <mxGeometry x="201" y="370" width="10" height="10" as="geometry" />
        </mxCell>
        <mxCell id="g54L0pqRCQCfRFXYQp3v-21" value="" style="strokeWidth=2;html=1;shape=mxgraph.flowchart.annotation_1;align=left;pointerEvents=1;rotation=-90;fillColor=#e3c800;fontColor=#000000;strokeColor=#97D077;" vertex="1" parent="1">
          <mxGeometry x="211" y="370" width="10" height="10" as="geometry" />
        </mxCell>
        <mxCell id="g54L0pqRCQCfRFXYQp3v-22" value="" style="strokeWidth=2;html=1;shape=mxgraph.flowchart.annotation_1;align=left;pointerEvents=1;rotation=-90;fillColor=#e3c800;fontColor=#000000;strokeColor=#97D077;" vertex="1" parent="1">
          <mxGeometry x="221" y="370" width="10" height="10" as="geometry" />
        </mxCell>
        <mxCell id="g54L0pqRCQCfRFXYQp3v-23" value="" style="strokeWidth=2;html=1;shape=mxgraph.flowchart.annotation_1;align=left;pointerEvents=1;rotation=-90;fillColor=#e3c800;fontColor=#000000;strokeColor=#97D077;" vertex="1" parent="1">
          <mxGeometry x="231" y="370" width="10" height="10" as="geometry" />
        </mxCell>
        <mxCell id="g54L0pqRCQCfRFXYQp3v-32" value="" style="strokeWidth=2;html=1;shape=mxgraph.flowchart.annotation_1;align=left;pointerEvents=1;rotation=-90;fillColor=#e51400;fontColor=#ffffff;strokeColor=#B20000;" vertex="1" parent="1">
          <mxGeometry x="480" y="339" width="10" height="10" as="geometry" />
        </mxCell>
        <mxCell id="g54L0pqRCQCfRFXYQp3v-33" value="" style="strokeWidth=2;html=1;shape=mxgraph.flowchart.annotation_1;align=left;pointerEvents=1;rotation=-90;fillColor=#e51400;fontColor=#ffffff;strokeColor=#B20000;" vertex="1" parent="1">
          <mxGeometry x="490" y="339" width="10" height="10" as="geometry" />
        </mxCell>
        <mxCell id="g54L0pqRCQCfRFXYQp3v-34" value="" style="strokeWidth=2;html=1;shape=mxgraph.flowchart.annotation_1;align=left;pointerEvents=1;rotation=-90;fillColor=#e51400;fontColor=#ffffff;strokeColor=#B20000;" vertex="1" parent="1">
          <mxGeometry x="500" y="339" width="10" height="10" as="geometry" />
        </mxCell>
        <mxCell id="g54L0pqRCQCfRFXYQp3v-35" value="" style="strokeWidth=2;html=1;shape=mxgraph.flowchart.annotation_1;align=left;pointerEvents=1;rotation=-90;fillColor=#E51400;fontColor=#ffffff;strokeColor=#B20000;" vertex="1" parent="1">
          <mxGeometry x="510" y="339" width="10" height="10" as="geometry" />
        </mxCell>
        <mxCell id="g54L0pqRCQCfRFXYQp3v-36" value="" style="strokeWidth=2;html=1;shape=mxgraph.flowchart.annotation_1;align=left;pointerEvents=1;rotation=-90;fillColor=#e51400;fontColor=#ffffff;strokeColor=#B20000;" vertex="1" parent="1">
          <mxGeometry x="520" y="339" width="10" height="10" as="geometry" />
        </mxCell>
        <mxCell id="g54L0pqRCQCfRFXYQp3v-37" value="" style="strokeWidth=2;html=1;shape=mxgraph.flowchart.annotation_1;align=left;pointerEvents=1;rotation=-90;fillColor=#e51400;fontColor=#ffffff;strokeColor=#B20000;" vertex="1" parent="1">
          <mxGeometry x="530" y="339" width="10" height="10" as="geometry" />
        </mxCell>
        <mxCell id="g54L0pqRCQCfRFXYQp3v-38" value="" style="strokeWidth=2;html=1;shape=mxgraph.flowchart.annotation_1;align=left;pointerEvents=1;rotation=-90;fillColor=#e51400;fontColor=#ffffff;strokeColor=#B20000;" vertex="1" parent="1">
          <mxGeometry x="540" y="339" width="10" height="10" as="geometry" />
        </mxCell>
        <mxCell id="g54L0pqRCQCfRFXYQp3v-39" value="" style="strokeWidth=2;html=1;shape=mxgraph.flowchart.annotation_1;align=left;pointerEvents=1;rotation=-90;fillColor=#e51400;fontColor=#ffffff;strokeColor=#B20000;" vertex="1" parent="1">
          <mxGeometry x="550" y="339" width="10" height="10" as="geometry" />
        </mxCell>
        <mxCell id="g54L0pqRCQCfRFXYQp3v-40" value="StopByte（0x00）" style="text;html=1;align=center;verticalAlign=middle;resizable=0;points=[];autosize=1;strokeColor=none;fillColor=none;fontColor=#E51400;" vertex="1" parent="1">
          <mxGeometry x="470" y="294" width="110" height="20" as="geometry" />
        </mxCell>
        <mxCell id="g54L0pqRCQCfRFXYQp3v-41" value="" style="shape=curlyBracket;whiteSpace=wrap;html=1;rounded=1;rotation=90;fillColor=#E51400;fontColor=#ffffff;strokeColor=#B20000;" vertex="1" parent="1">
          <mxGeometry x="511.5" y="283.5" width="18" height="83" as="geometry" />
        </mxCell>
        <mxCell id="g54L0pqRCQCfRFXYQp3v-42" value="&lt;span style=&quot;text-align: left ; background-color: rgb(255 , 255 , 255)&quot;&gt;FirstEdge&lt;br&gt;diff=dst-src&lt;br&gt;&lt;/span&gt;" style="text;html=1;align=center;verticalAlign=middle;resizable=0;points=[];autosize=1;strokeColor=none;fillColor=none;" vertex="1" parent="1">
          <mxGeometry x="60" y="359" width="70" height="30" as="geometry" />
        </mxCell>
        <mxCell id="g54L0pqRCQCfRFXYQp3v-43" value="&lt;span style=&quot;text-align: left ; background-color: rgb(255 , 255 , 255)&quot;&gt;OtherEdge&lt;br&gt;diff=cur_dst-last_dst&lt;br&gt;&lt;/span&gt;" style="text;html=1;align=center;verticalAlign=middle;resizable=0;points=[];autosize=1;strokeColor=none;fillColor=none;" vertex="1" parent="1">
          <mxGeometry x="35" y="442.13" width="120" height="30" as="geometry" />
        </mxCell>
        <mxCell id="g54L0pqRCQCfRFXYQp3v-45" value="" style="strokeWidth=2;html=1;shape=mxgraph.flowchart.annotation_1;align=left;pointerEvents=1;rotation=-90;fillColor=#e3c800;fontColor=#000000;strokeColor=#97D077;" vertex="1" parent="1">
          <mxGeometry x="251" y="370" width="10" height="10" as="geometry" />
        </mxCell>
        <mxCell id="g54L0pqRCQCfRFXYQp3v-46" value="" style="strokeWidth=2;html=1;shape=mxgraph.flowchart.annotation_1;align=left;pointerEvents=1;rotation=-90;fillColor=#e3c800;fontColor=#000000;strokeColor=#97D077;" vertex="1" parent="1">
          <mxGeometry x="261" y="370" width="10" height="10" as="geometry" />
        </mxCell>
        <mxCell id="g54L0pqRCQCfRFXYQp3v-47" value="" style="strokeWidth=2;html=1;shape=mxgraph.flowchart.annotation_1;align=left;pointerEvents=1;rotation=-90;fillColor=#e3c800;fontColor=#000000;strokeColor=#97D077;" vertex="1" parent="1">
          <mxGeometry x="271" y="370" width="10" height="10" as="geometry" />
        </mxCell>
        <mxCell id="g54L0pqRCQCfRFXYQp3v-48" value="" style="strokeWidth=2;html=1;shape=mxgraph.flowchart.annotation_1;align=left;pointerEvents=1;rotation=-90;fillColor=#e3c800;fontColor=#000000;strokeColor=#97D077;" vertex="1" parent="1">
          <mxGeometry x="281" y="370" width="10" height="10" as="geometry" />
        </mxCell>
        <mxCell id="g54L0pqRCQCfRFXYQp3v-49" value="" style="strokeWidth=2;html=1;shape=mxgraph.flowchart.annotation_1;align=left;pointerEvents=1;rotation=-90;fillColor=#e3c800;fontColor=#000000;strokeColor=#97D077;" vertex="1" parent="1">
          <mxGeometry x="291" y="370" width="10" height="10" as="geometry" />
        </mxCell>
        <mxCell id="g54L0pqRCQCfRFXYQp3v-50" value="" style="strokeWidth=2;html=1;shape=mxgraph.flowchart.annotation_1;align=left;pointerEvents=1;rotation=-90;fillColor=#e3c800;fontColor=#000000;strokeColor=#97D077;" vertex="1" parent="1">
          <mxGeometry x="301" y="370" width="10" height="10" as="geometry" />
        </mxCell>
        <mxCell id="g54L0pqRCQCfRFXYQp3v-51" value="" style="strokeWidth=2;html=1;shape=mxgraph.flowchart.annotation_1;align=left;pointerEvents=1;rotation=-90;fillColor=#e3c800;fontColor=#000000;strokeColor=#97D077;" vertex="1" parent="1">
          <mxGeometry x="311" y="370" width="10" height="10" as="geometry" />
        </mxCell>
        <mxCell id="g54L0pqRCQCfRFXYQp3v-17" value="" style="strokeWidth=2;html=1;shape=mxgraph.flowchart.annotation_1;align=left;pointerEvents=1;rotation=-90;fillColor=#e51400;fontColor=#ffffff;strokeColor=#B20000;" vertex="1" parent="1">
          <mxGeometry x="171" y="370" width="10" height="10" as="geometry" />
        </mxCell>
        <mxCell id="g54L0pqRCQCfRFXYQp3v-44" value="" style="strokeWidth=2;html=1;shape=mxgraph.flowchart.annotation_1;align=left;pointerEvents=1;rotation=-90;fillColor=#E51400;fontColor=#000000;strokeColor=#B20000;" vertex="1" parent="1">
          <mxGeometry x="241" y="370" width="10" height="10" as="geometry" />
        </mxCell>
        <mxCell id="g54L0pqRCQCfRFXYQp3v-53" value="&lt;p class=&quot;p1&quot; style=&quot;margin: 0px ; font-stretch: normal ; line-height: normal ; color: rgb(0 , 0 , 0)&quot;&gt;8-bit encode&lt;/p&gt;" style="text;html=1;align=center;verticalAlign=middle;resizable=0;points=[];autosize=1;strokeColor=none;fillColor=none;fontColor=#FFFF33;" vertex="1" parent="1">
          <mxGeometry x="161" y="350" width="80" height="20" as="geometry" />
        </mxCell>
        <mxCell id="g54L0pqRCQCfRFXYQp3v-54" value="" style="strokeWidth=2;html=1;shape=mxgraph.flowchart.annotation_1;align=left;pointerEvents=1;rotation=-90;fillColor=#e3c800;fontColor=#000000;strokeColor=#97D077;" vertex="1" parent="1">
          <mxGeometry x="171" y="460.13" width="10" height="10" as="geometry" />
        </mxCell>
        <mxCell id="g54L0pqRCQCfRFXYQp3v-55" value="" style="strokeWidth=2;html=1;shape=mxgraph.flowchart.annotation_1;align=left;pointerEvents=1;rotation=-90;fillColor=#e3c800;fontColor=#000000;strokeColor=#97D077;" vertex="1" parent="1">
          <mxGeometry x="181" y="460.13" width="10" height="10" as="geometry" />
        </mxCell>
        <mxCell id="g54L0pqRCQCfRFXYQp3v-56" value="" style="strokeWidth=2;html=1;shape=mxgraph.flowchart.annotation_1;align=left;pointerEvents=1;rotation=-90;fillColor=#e3c800;fontColor=#000000;strokeColor=#97D077;" vertex="1" parent="1">
          <mxGeometry x="191" y="460.13" width="10" height="10" as="geometry" />
        </mxCell>
        <mxCell id="g54L0pqRCQCfRFXYQp3v-57" value="" style="strokeWidth=2;html=1;shape=mxgraph.flowchart.annotation_1;align=left;pointerEvents=1;rotation=-90;fillColor=#e3c800;fontColor=#000000;strokeColor=#97D077;" vertex="1" parent="1">
          <mxGeometry x="201" y="460.13" width="10" height="10" as="geometry" />
        </mxCell>
        <mxCell id="g54L0pqRCQCfRFXYQp3v-58" value="" style="strokeWidth=2;html=1;shape=mxgraph.flowchart.annotation_1;align=left;pointerEvents=1;rotation=-90;fillColor=#e3c800;fontColor=#000000;strokeColor=#97D077;" vertex="1" parent="1">
          <mxGeometry x="211" y="460.13" width="10" height="10" as="geometry" />
        </mxCell>
        <mxCell id="g54L0pqRCQCfRFXYQp3v-59" value="" style="strokeWidth=2;html=1;shape=mxgraph.flowchart.annotation_1;align=left;pointerEvents=1;rotation=-90;fillColor=#e3c800;fontColor=#000000;strokeColor=#97D077;" vertex="1" parent="1">
          <mxGeometry x="221" y="460.13" width="10" height="10" as="geometry" />
        </mxCell>
        <mxCell id="g54L0pqRCQCfRFXYQp3v-60" value="" style="strokeWidth=2;html=1;shape=mxgraph.flowchart.annotation_1;align=left;pointerEvents=1;rotation=-90;fillColor=#e3c800;fontColor=#000000;strokeColor=#97D077;" vertex="1" parent="1">
          <mxGeometry x="231" y="460.13" width="10" height="10" as="geometry" />
        </mxCell>
        <mxCell id="g54L0pqRCQCfRFXYQp3v-61" value="" style="strokeWidth=2;html=1;shape=mxgraph.flowchart.annotation_1;align=left;pointerEvents=1;rotation=-90;fillColor=#E51400;fontColor=#000000;strokeColor=#B20000;" vertex="1" parent="1">
          <mxGeometry x="161" y="460.13" width="10" height="10" as="geometry" />
        </mxCell>
        <mxCell id="g54L0pqRCQCfRFXYQp3v-67" style="rounded=0;orthogonalLoop=1;jettySize=auto;html=1;entryX=0;entryY=0.5;entryDx=0;entryDy=0;entryPerimeter=0;fontSize=9;fontColor=#66B2FF;" edge="1" parent="1" source="g54L0pqRCQCfRFXYQp3v-62" target="g54L0pqRCQCfRFXYQp3v-17">
          <mxGeometry relative="1" as="geometry" />
        </mxCell>
        <mxCell id="g54L0pqRCQCfRFXYQp3v-68" style="edgeStyle=none;rounded=0;orthogonalLoop=1;jettySize=auto;html=1;entryX=0;entryY=0.5;entryDx=0;entryDy=0;entryPerimeter=0;fontSize=9;fontColor=#66B2FF;" edge="1" parent="1" source="g54L0pqRCQCfRFXYQp3v-62" target="g54L0pqRCQCfRFXYQp3v-44">
          <mxGeometry relative="1" as="geometry" />
        </mxCell>
        <mxCell id="g54L0pqRCQCfRFXYQp3v-69" style="edgeStyle=none;rounded=0;orthogonalLoop=1;jettySize=auto;html=1;entryX=0.91;entryY=0.252;entryDx=0;entryDy=0;entryPerimeter=0;fontSize=9;fontColor=#66B2FF;" edge="1" parent="1" source="g54L0pqRCQCfRFXYQp3v-62" target="g54L0pqRCQCfRFXYQp3v-61">
          <mxGeometry relative="1" as="geometry" />
        </mxCell>
        <mxCell id="g54L0pqRCQCfRFXYQp3v-62" value="continue bit&lt;br&gt;作用：当前边编码是否&lt;br&gt;结束" style="text;html=1;align=center;verticalAlign=middle;resizable=0;points=[];autosize=1;strokeColor=none;fillColor=none;fontColor=#B20000;" vertex="1" parent="1">
          <mxGeometry x="171" y="398.91" width="140" height="50" as="geometry" />
        </mxCell>
        <mxCell id="g54L0pqRCQCfRFXYQp3v-86" style="edgeStyle=none;rounded=0;orthogonalLoop=1;jettySize=auto;html=1;entryX=0;entryY=0;entryDx=0;entryDy=0;entryPerimeter=0;fontSize=9;fontColor=#E51400;strokeColor=#66B2FF;" edge="1" parent="1" source="g54L0pqRCQCfRFXYQp3v-66" target="g54L0pqRCQCfRFXYQp3v-13">
          <mxGeometry relative="1" as="geometry" />
        </mxCell>
        <mxCell id="g54L0pqRCQCfRFXYQp3v-66" value="&lt;span style=&quot;font-family: &amp;#34;helvetica&amp;#34; ; text-align: left&quot;&gt;sign bit&lt;br&gt;仅在FirstEdge第一个byte存储&lt;br&gt;作用：区分dst与src的大小&lt;br&gt;&lt;/span&gt;" style="text;html=1;align=center;verticalAlign=middle;resizable=0;points=[];autosize=1;strokeColor=none;fillColor=none;fontSize=9;fontColor=#66B2FF;" vertex="1" parent="1">
          <mxGeometry x="11" y="398.91" width="170" height="40" as="geometry" />
        </mxCell>
        <mxCell id="g54L0pqRCQCfRFXYQp3v-70" value="" style="shape=curlyBracket;whiteSpace=wrap;html=1;rounded=1;flipH=1;dashed=1;dashPattern=1 1;fontSize=9;fontColor=#66B2FF;strokeColor=#97D077;fillColor=#E51400;rotation=90;" vertex="1" parent="1">
          <mxGeometry x="280.93" y="351.19" width="14.65" height="74.52" as="geometry" />
        </mxCell>
        <mxCell id="g54L0pqRCQCfRFXYQp3v-71" value="data" style="text;html=1;align=center;verticalAlign=middle;resizable=0;points=[];autosize=1;strokeColor=none;fillColor=none;fontSize=9;fontColor=#97D077;" vertex="1" parent="1">
          <mxGeometry x="267.06" y="389" width="40" height="20" as="geometry" />
        </mxCell>
        <mxCell id="g54L0pqRCQCfRFXYQp3v-72" value="StopByte&lt;br&gt;value=0x00" style="text;html=1;align=center;verticalAlign=middle;resizable=0;points=[];autosize=1;strokeColor=none;fillColor=none;fontSize=9;fontColor=#E51400;" vertex="1" parent="1">
          <mxGeometry x="50" y="496" width="80" height="30" as="geometry" />
        </mxCell>
        <mxCell id="g54L0pqRCQCfRFXYQp3v-73" value="" style="endArrow=none;dashed=1;html=1;dashPattern=1 3;strokeWidth=2;rounded=0;exitX=0;exitY=1;exitDx=0;exitDy=0;exitPerimeter=0;entryX=0;entryY=0;entryDx=0;entryDy=0;entryPerimeter=0;fillColor=#dae8fc;strokeColor=#000000;fontColor=#000000;" edge="1" parent="1">
          <mxGeometry width="50" height="50" relative="1" as="geometry">
            <mxPoint x="241" y="469.79000000000013" as="sourcePoint" />
            <mxPoint x="321" y="469.79000000000013" as="targetPoint" />
          </mxGeometry>
        </mxCell>
        <mxCell id="g54L0pqRCQCfRFXYQp3v-74" value="" style="strokeWidth=2;html=1;shape=mxgraph.flowchart.annotation_1;align=left;pointerEvents=1;rotation=-90;fillColor=#e3c800;fontColor=#000000;strokeColor=#E51400;" vertex="1" parent="1">
          <mxGeometry x="171" y="500" width="10" height="10" as="geometry" />
        </mxCell>
        <mxCell id="g54L0pqRCQCfRFXYQp3v-75" value="" style="strokeWidth=2;html=1;shape=mxgraph.flowchart.annotation_1;align=left;pointerEvents=1;rotation=-90;fillColor=#e3c800;fontColor=#000000;strokeColor=#E51400;" vertex="1" parent="1">
          <mxGeometry x="181" y="500" width="10" height="10" as="geometry" />
        </mxCell>
        <mxCell id="g54L0pqRCQCfRFXYQp3v-76" value="" style="strokeWidth=2;html=1;shape=mxgraph.flowchart.annotation_1;align=left;pointerEvents=1;rotation=-90;fillColor=#e3c800;fontColor=#000000;strokeColor=#E51400;" vertex="1" parent="1">
          <mxGeometry x="191" y="500" width="10" height="10" as="geometry" />
        </mxCell>
        <mxCell id="g54L0pqRCQCfRFXYQp3v-77" value="" style="strokeWidth=2;html=1;shape=mxgraph.flowchart.annotation_1;align=left;pointerEvents=1;rotation=-90;fillColor=#e3c800;fontColor=#000000;strokeColor=#E51400;" vertex="1" parent="1">
          <mxGeometry x="201" y="500" width="10" height="10" as="geometry" />
        </mxCell>
        <mxCell id="g54L0pqRCQCfRFXYQp3v-78" value="" style="strokeWidth=2;html=1;shape=mxgraph.flowchart.annotation_1;align=left;pointerEvents=1;rotation=-90;fillColor=#e3c800;fontColor=#000000;strokeColor=#E51400;" vertex="1" parent="1">
          <mxGeometry x="211" y="500" width="10" height="10" as="geometry" />
        </mxCell>
        <mxCell id="g54L0pqRCQCfRFXYQp3v-79" value="" style="strokeWidth=2;html=1;shape=mxgraph.flowchart.annotation_1;align=left;pointerEvents=1;rotation=-90;fillColor=#e3c800;fontColor=#000000;strokeColor=#E51400;" vertex="1" parent="1">
          <mxGeometry x="221" y="500" width="10" height="10" as="geometry" />
        </mxCell>
        <mxCell id="g54L0pqRCQCfRFXYQp3v-80" value="" style="strokeWidth=2;html=1;shape=mxgraph.flowchart.annotation_1;align=left;pointerEvents=1;rotation=-90;fillColor=#e3c800;fontColor=#000000;strokeColor=#E51400;" vertex="1" parent="1">
          <mxGeometry x="231" y="500" width="10" height="10" as="geometry" />
        </mxCell>
        <mxCell id="g54L0pqRCQCfRFXYQp3v-81" value="" style="strokeWidth=2;html=1;shape=mxgraph.flowchart.annotation_1;align=left;pointerEvents=1;rotation=-90;fillColor=#E51400;fontColor=#000000;strokeColor=#E51400;" vertex="1" parent="1">
          <mxGeometry x="161" y="500" width="10" height="10" as="geometry" />
        </mxCell>
        <mxCell id="g54L0pqRCQCfRFXYQp3v-82" value="&lt;meta charset=&quot;utf-8&quot;&gt;&lt;span style=&quot;color: rgb(229, 20, 0); font-family: helvetica; font-size: 9px; font-style: normal; font-weight: 400; letter-spacing: normal; text-align: center; text-indent: 0px; text-transform: none; word-spacing: 0px; background-color: rgb(248, 249, 250); display: inline; float: none;&quot;&gt;作为src解码的结束标识&lt;/span&gt;" style="text;whiteSpace=wrap;html=1;fontSize=9;fontColor=#E51400;" vertex="1" parent="1">
          <mxGeometry x="136" y="510" width="150" height="30" as="geometry" />
        </mxCell>
        <mxCell id="g54L0pqRCQCfRFXYQp3v-84" value="" style="rounded=0;whiteSpace=wrap;html=1;fontSize=9;fontColor=#E51400;strokeColor=#000000;fillColor=none;gradientColor=#ffffff;" vertex="1" parent="1">
          <mxGeometry x="46" y="488" width="510" height="73" as="geometry" />
        </mxCell>
        <mxCell id="g54L0pqRCQCfRFXYQp3v-85" value="此处优化：减少了对index比较，不依赖于下一个节点的index，并发操作时，缩减寻址的范围" style="text;html=1;strokeColor=none;fillColor=none;align=center;verticalAlign=middle;whiteSpace=wrap;rounded=0;fontSize=9;fontColor=#E51400;" vertex="1" parent="1">
          <mxGeometry x="35" y="530" width="535" height="30" as="geometry" />
        </mxCell>
      </root>
    </mxGraphModel>
  </diagram>
</mxfile>
